<svg id="svg" version="1.1" xmlns="http://www.w3.org/2000/svg" xmlns:xlink="http://www.w3.org/1999/xlink" width="400" height="400.78585461689585" viewBox="0, 0, 400,400.78585461689585"><g id="svgg"><path id="path0" d="M194.200 204.393 C 172.630 208.150,162.499 233.506,175.587 250.982 C 184.404 262.757,199.306 266.161,212.796 259.481 C 228.931 251.493,233.558 229.225,222.052 214.942 C 215.672 207.023,204.153 202.660,194.200 204.393 M12.640 223.700 C 13.061 228.076,14.519 236.990,15.600 241.800 C 17.324 249.470,21.787 264.018,23.605 267.896 C 24.042 268.828,24.400 269.827,24.400 270.116 C 24.400 270.404,24.553 270.811,24.740 271.020 C 24.927 271.229,25.358 272.120,25.697 273.000 C 31.284 287.476,43.818 308.249,54.781 321.200 C 55.991 322.630,57.430 324.340,57.978 325.000 C 59.891 327.304,74.625 341.844,77.648 344.411 C 81.892 348.015,82.057 348.147,86.783 351.741 C 97.593 359.961,111.870 368.259,125.400 374.186 C 126.280 374.572,127.523 375.138,128.161 375.444 C 128.800 375.750,129.477 376.000,129.666 376.000 C 129.854 376.000,130.772 376.340,131.704 376.756 C 138.591 379.825,154.803 384.683,162.600 386.013 C 171.818 387.586,173.214 387.787,182.400 388.863 C 187.938 389.512,212.779 389.511,218.400 388.863 C 227.154 387.852,228.772 387.624,236.100 386.373 C 254.567 383.220,279.419 373.765,296.314 363.464 C 298.357 362.219,300.099 361.200,300.186 361.200 C 300.677 361.200,312.793 352.802,314.806 351.067 C 315.359 350.590,316.529 349.663,317.406 349.007 C 325.766 342.754,340.337 328.456,347.000 319.968 C 357.148 307.039,363.180 297.706,369.214 285.600 C 373.040 277.924,374.367 274.976,376.603 269.200 C 377.411 267.110,378.227 265.040,378.415 264.600 C 381.138 258.231,385.200 242.818,386.794 232.800 C 387.057 231.150,387.436 228.936,387.636 227.880 C 387.836 226.824,388.000 225.439,388.000 224.802 L 388.000 223.644 384.840 225.204 C 379.239 227.970,375.938 229.424,369.000 232.181 C 365.260 233.667,361.840 235.026,361.400 235.201 C 360.960 235.376,359.970 235.736,359.200 236.000 C 358.430 236.264,357.440 236.641,357.000 236.836 C 350.579 239.688,323.968 247.182,310.400 249.959 C 300.690 251.946,290.080 253.824,283.200 254.773 C 281.550 255.000,278.940 255.367,277.400 255.589 C 270.739 256.545,258.257 257.780,249.107 258.388 C 242.594 258.820,243.092 258.587,240.100 262.600 C 233.173 271.889,221.932 279.312,211.400 281.552 C 210.300 281.786,208.555 282.162,207.523 282.389 C 205.198 282.898,193.614 282.932,191.646 282.435 C 190.851 282.234,189.210 281.857,188.000 281.598 C 176.239 279.078,164.343 270.854,157.288 260.368 L 156.055 258.536 150.727 258.040 C 133.586 256.446,120.820 254.814,109.900 252.820 C 108.635 252.589,106.655 252.232,105.500 252.026 C 86.160 248.585,64.230 242.706,47.300 236.425 C 38.959 233.330,37.616 232.820,34.800 231.680 C 29.920 229.705,23.974 226.993,18.419 224.209 C 12.142 221.064,12.388 221.086,12.640 223.700 " stroke="none" fill="#fbfbfb" fill-rule="evenodd"></path><path id="path1" d="M183.000 0.800 C 182.864 1.020,181.143 1.200,179.176 1.200 C 177.059 1.200,175.600 1.363,175.600 1.600 C 175.600 1.831,174.333 2.000,172.600 2.000 C 170.867 2.000,169.600 2.169,169.600 2.400 C 169.600 2.622,168.533 2.800,167.200 2.800 C 165.867 2.800,164.800 2.978,164.800 3.200 C 164.800 3.420,163.900 3.600,162.800 3.600 C 161.700 3.600,160.800 3.780,160.800 4.000 C 160.800 4.220,159.900 4.400,158.800 4.400 C 157.700 4.400,156.800 4.580,156.800 4.800 C 156.800 5.020,156.080 5.200,155.200 5.200 C 154.320 5.200,153.600 5.380,153.600 5.600 C 153.600 5.820,152.880 6.000,152.000 6.000 C 151.120 6.000,150.400 6.180,150.400 6.400 C 150.400 6.620,149.680 6.800,148.800 6.800 C 147.920 6.800,147.200 6.980,147.200 7.200 C 147.200 7.420,146.570 7.600,145.800 7.600 C 145.030 7.600,144.400 7.780,144.400 8.000 C 144.400 8.220,143.860 8.400,143.200 8.400 C 142.540 8.400,142.000 8.580,142.000 8.800 C 142.000 9.020,141.460 9.200,140.800 9.200 C 140.140 9.200,139.600 9.380,139.600 9.600 C 139.600 9.820,139.071 10.000,138.424 10.000 C 137.777 10.000,137.146 10.163,137.023 10.363 C 136.900 10.562,135.900 10.849,134.800 11.000 C 133.700 11.151,132.700 11.438,132.577 11.637 C 132.454 11.837,132.001 12.000,131.571 12.000 C 131.141 12.000,130.477 12.159,130.095 12.353 C 129.713 12.548,128.905 12.908,128.300 13.153 C 127.695 13.399,126.705 13.801,126.100 14.047 C 125.495 14.292,124.687 14.652,124.305 14.847 C 123.923 15.041,123.338 15.200,123.005 15.200 C 122.672 15.200,122.400 15.380,122.400 15.600 C 122.400 15.820,122.040 16.000,121.600 16.000 C 121.160 16.000,120.800 16.180,120.800 16.400 C 120.800 16.620,120.361 16.800,119.824 16.800 C 119.287 16.800,118.736 16.980,118.600 17.200 C 118.464 17.420,118.003 17.600,117.576 17.600 C 117.149 17.600,116.800 17.780,116.800 18.000 C 116.800 18.220,116.440 18.400,116.000 18.400 C 115.560 18.400,115.200 18.580,115.200 18.800 C 115.200 19.020,114.840 19.200,114.400 19.200 C 113.960 19.200,113.600 19.380,113.600 19.600 C 113.600 19.820,113.240 20.000,112.800 20.000 C 112.360 20.000,112.000 20.180,112.000 20.400 C 112.000 20.620,111.640 20.800,111.200 20.800 C 110.760 20.800,110.400 20.980,110.400 21.200 C 110.400 21.420,110.040 21.600,109.600 21.600 C 109.160 21.600,108.800 21.780,108.800 22.000 C 108.800 22.220,108.440 22.400,108.000 22.400 C 107.560 22.400,107.200 22.580,107.200 22.800 C 107.200 23.020,106.840 23.200,106.400 23.200 C 105.960 23.200,105.600 23.380,105.600 23.600 C 105.600 23.820,105.240 24.000,104.800 24.000 C 104.360 24.000,104.000 24.180,104.000 24.400 C 104.000 24.620,103.730 24.800,103.400 24.800 C 103.070 24.800,102.800 24.980,102.800 25.200 C 102.800 25.420,102.530 25.600,102.200 25.600 C 101.870 25.600,101.600 25.780,101.600 26.000 C 101.600 26.220,101.330 26.400,101.000 26.400 C 100.670 26.400,100.400 26.580,100.400 26.800 C 100.400 27.020,100.040 27.200,99.600 27.200 C 99.160 27.200,98.800 27.380,98.800 27.600 C 98.800 27.820,98.480 28.000,98.088 28.000 C 97.697 28.000,97.117 28.360,96.800 28.800 C 96.483 29.240,95.986 29.600,95.695 29.600 C 95.404 29.600,94.780 29.960,94.308 30.400 C 93.836 30.840,93.213 31.200,92.925 31.200 C 92.636 31.200,92.400 31.380,92.400 31.600 C 92.400 31.820,92.138 32.000,91.818 32.000 C 91.231 32.000,89.046 33.321,87.200 34.792 C 86.650 35.231,86.015 35.592,85.788 35.595 C 85.562 35.598,85.117 35.960,84.800 36.400 C 84.483 36.840,84.038 37.203,83.812 37.207 C 83.384 37.215,81.719 38.471,79.182 40.700 C 78.369 41.415,77.572 42.000,77.412 42.000 C 77.252 42.000,76.617 42.540,76.000 43.200 C 75.383 43.860,74.699 44.400,74.480 44.400 C 74.261 44.400,73.162 45.300,72.039 46.400 C 70.915 47.500,69.845 48.400,69.661 48.400 C 69.232 48.400,64.157 53.133,59.455 57.919 C 50.613 66.917,49.200 68.409,49.200 68.741 C 49.200 68.934,48.255 70.087,47.100 71.302 C 44.667 73.861,42.272 76.728,42.037 77.361 C 41.948 77.602,41.579 78.070,41.218 78.400 C 40.857 78.730,40.125 79.630,39.592 80.400 C 39.058 81.170,38.302 82.149,37.911 82.575 C 37.520 83.002,37.200 83.572,37.200 83.842 C 37.200 84.112,37.063 84.393,36.895 84.467 C 36.373 84.695,33.600 88.774,33.600 89.313 C 33.600 89.594,33.240 90.083,32.800 90.400 C 32.360 90.717,32.000 91.297,32.000 91.688 C 32.000 92.080,31.820 92.400,31.600 92.400 C 31.380 92.400,31.200 92.720,31.200 93.112 C 31.200 93.503,30.840 94.083,30.400 94.400 C 29.960 94.717,29.600 95.207,29.600 95.488 C 29.600 95.770,29.420 96.000,29.200 96.000 C 28.980 96.000,28.800 96.270,28.800 96.600 C 28.800 96.930,28.620 97.200,28.400 97.200 C 28.180 97.200,28.000 97.470,28.000 97.800 C 28.000 98.130,27.820 98.400,27.600 98.400 C 27.380 98.400,27.200 98.760,27.200 99.200 C 27.200 99.640,27.020 100.000,26.800 100.000 C 26.580 100.000,26.400 100.278,26.400 100.617 C 26.400 100.956,26.040 101.620,25.600 102.092 C 25.160 102.564,24.800 103.187,24.800 103.475 C 24.800 103.764,24.620 104.000,24.400 104.000 C 24.180 104.000,24.000 104.360,24.000 104.800 C 24.000 105.240,23.820 105.600,23.600 105.600 C 23.380 105.600,23.200 105.960,23.200 106.400 C 23.200 106.840,23.020 107.200,22.800 107.200 C 22.580 107.200,22.400 107.560,22.400 108.000 C 22.400 108.440,22.220 108.800,22.000 108.800 C 21.780 108.800,21.600 109.160,21.600 109.600 C 21.600 110.040,21.420 110.400,21.200 110.400 C 20.980 110.400,20.800 110.760,20.800 111.200 C 20.800 111.640,20.620 112.000,20.400 112.000 C 20.180 112.000,20.000 112.360,20.000 112.800 C 20.000 113.240,19.820 113.600,19.600 113.600 C 19.380 113.600,19.200 113.960,19.200 114.400 C 19.200 114.840,19.020 115.200,18.800 115.200 C 18.580 115.200,18.400 115.560,18.400 116.000 C 18.400 116.440,18.220 116.800,18.000 116.800 C 17.780 116.800,17.600 117.149,17.600 117.576 C 17.600 118.003,17.420 118.464,17.200 118.600 C 16.980 118.736,16.800 119.197,16.800 119.624 C 16.800 120.051,16.620 120.400,16.400 120.400 C 16.180 120.400,16.000 120.672,16.000 121.005 C 16.000 121.338,15.841 121.923,15.647 122.305 C 15.297 122.992,14.727 124.351,14.054 126.100 C 13.863 126.595,13.511 127.450,13.270 128.000 C 12.352 130.102,10.800 135.260,10.800 136.208 C 10.800 136.754,10.620 137.200,10.400 137.200 C 10.180 137.200,10.000 137.650,10.000 138.200 C 10.000 138.750,9.820 139.200,9.600 139.200 C 9.380 139.200,9.200 139.740,9.200 140.400 C 9.200 141.060,9.020 141.600,8.800 141.600 C 8.580 141.600,8.400 142.140,8.400 142.800 C 8.400 143.460,8.220 144.000,8.000 144.000 C 7.780 144.000,7.600 144.720,7.600 145.600 C 7.600 146.480,7.420 147.200,7.200 147.200 C 6.980 147.200,6.800 147.819,6.800 148.576 C 6.800 149.333,6.620 150.064,6.400 150.200 C 6.180 150.336,6.000 151.157,6.000 152.024 C 6.000 152.891,5.820 153.600,5.600 153.600 C 5.380 153.600,5.200 154.320,5.200 155.200 C 5.200 156.080,5.020 156.800,4.800 156.800 C 4.580 156.800,4.400 157.599,4.400 158.576 C 4.400 159.553,4.220 160.464,4.000 160.600 C 3.780 160.736,3.600 161.647,3.600 162.624 C 3.600 163.601,3.420 164.400,3.200 164.400 C 2.978 164.400,2.800 165.467,2.800 166.800 C 2.800 168.133,2.622 169.200,2.400 169.200 C 2.171 169.200,2.000 170.400,2.000 172.000 C 2.000 173.600,1.829 174.800,1.600 174.800 C 1.362 174.800,1.200 176.325,1.200 178.576 C 1.200 180.663,1.021 182.463,0.800 182.600 C 0.543 182.759,0.400 189.204,0.400 200.624 C 0.400 212.208,0.539 218.400,0.800 218.400 C 1.037 218.400,1.200 219.867,1.200 222.000 C 1.200 224.133,1.363 225.600,1.600 225.600 C 1.831 225.600,2.000 226.859,2.000 228.576 C 2.000 230.213,2.180 231.664,2.400 231.800 C 2.620 231.936,2.800 233.016,2.800 234.200 C 2.800 235.384,2.980 236.464,3.200 236.600 C 3.420 236.736,3.600 237.647,3.600 238.624 C 3.600 239.601,3.780 240.400,4.000 240.400 C 4.220 240.400,4.400 241.300,4.400 242.400 C 4.400 243.500,4.580 244.400,4.800 244.400 C 5.020 244.400,5.200 245.120,5.200 246.000 C 5.200 246.880,5.380 247.600,5.600 247.600 C 5.820 247.600,6.000 248.320,6.000 249.200 C 6.000 250.080,6.180 250.800,6.400 250.800 C 6.620 250.800,6.800 251.520,6.800 252.400 C 6.800 253.280,6.980 254.000,7.200 254.000 C 7.420 254.000,7.600 254.529,7.600 255.176 C 7.600 255.823,7.780 256.464,8.000 256.600 C 8.220 256.736,8.400 257.366,8.400 258.000 C 8.400 258.634,8.580 259.264,8.800 259.400 C 9.020 259.536,9.200 260.076,9.200 260.600 C 9.200 261.124,9.380 261.664,9.600 261.800 C 9.820 261.936,10.000 262.487,10.000 263.024 C 10.000 263.561,10.180 264.000,10.400 264.000 C 10.620 264.000,10.800 264.410,10.800 264.911 C 10.800 266.006,12.716 272.042,13.234 272.580 C 13.435 272.789,13.600 273.363,13.600 273.856 C 13.600 274.349,13.780 274.864,14.000 275.000 C 14.220 275.136,14.400 275.597,14.400 276.024 C 14.400 276.451,14.580 276.800,14.800 276.800 C 15.020 276.800,15.200 277.088,15.200 277.439 C 15.200 277.969,17.455 283.095,18.832 285.695 C 19.034 286.077,19.200 286.662,19.200 286.995 C 19.200 287.328,19.380 287.600,19.600 287.600 C 19.820 287.600,20.000 287.960,20.000 288.400 C 20.000 288.840,20.180 289.200,20.400 289.200 C 20.620 289.200,20.800 289.560,20.800 290.000 C 20.800 290.440,20.980 290.800,21.200 290.800 C 21.420 290.800,21.600 291.160,21.600 291.600 C 21.600 292.040,21.780 292.400,22.000 292.400 C 22.220 292.400,22.400 292.745,22.400 293.167 C 22.400 293.588,22.535 293.993,22.700 294.067 C 23.076 294.234,24.375 296.364,24.671 297.300 C 24.793 297.685,25.052 298.000,25.247 298.000 C 25.441 298.000,25.600 298.360,25.600 298.800 C 25.600 299.240,25.780 299.600,26.000 299.600 C 26.220 299.600,26.400 299.878,26.400 300.217 C 26.400 300.556,26.760 301.220,27.200 301.692 C 27.640 302.164,28.000 302.787,28.000 303.075 C 28.000 303.364,28.180 303.600,28.400 303.600 C 28.620 303.600,28.800 303.788,28.800 304.017 C 28.800 304.246,29.160 304.820,29.600 305.292 C 30.040 305.764,30.400 306.387,30.400 306.675 C 30.400 306.964,30.580 307.200,30.800 307.200 C 31.020 307.200,31.200 307.520,31.200 307.912 C 31.200 308.303,31.560 308.883,32.000 309.200 C 32.440 309.517,32.800 310.097,32.800 310.488 C 32.800 310.880,32.953 311.200,33.139 311.200 C 33.326 311.200,33.803 311.920,34.200 312.800 C 34.597 313.680,35.062 314.400,35.234 314.400 C 35.406 314.400,35.662 314.766,35.804 315.213 C 35.946 315.660,36.498 316.462,37.031 316.995 C 37.564 317.528,38.000 318.118,38.000 318.306 C 38.000 318.495,38.320 318.998,38.711 319.425 C 39.102 319.851,39.858 320.830,40.392 321.600 C 40.925 322.370,41.686 323.291,42.081 323.647 C 42.476 324.003,42.800 324.422,42.800 324.578 C 42.800 324.735,43.520 325.554,44.400 326.400 C 45.280 327.246,46.000 328.141,46.000 328.391 C 46.000 328.640,47.080 329.904,48.400 331.200 C 49.720 332.496,50.800 333.725,50.800 333.931 C 50.800 334.138,51.925 335.476,53.300 336.905 C 54.675 338.334,56.891 340.650,58.224 342.051 C 61.299 345.285,66.840 350.400,67.268 350.400 C 67.448 350.400,68.692 351.480,70.032 352.800 C 71.373 354.120,72.648 355.200,72.866 355.200 C 73.084 355.200,73.954 355.920,74.800 356.800 C 75.646 357.680,76.549 358.400,76.808 358.400 C 77.067 358.400,77.783 358.940,78.400 359.600 C 79.017 360.260,79.630 360.800,79.764 360.800 C 79.898 360.800,80.572 361.340,81.263 362.000 C 81.954 362.660,82.762 363.200,83.059 363.200 C 83.357 363.200,83.600 363.341,83.600 363.514 C 83.600 363.686,84.095 364.124,84.700 364.487 C 85.305 364.850,86.160 365.428,86.600 365.773 C 88.114 366.959,90.436 368.400,90.834 368.400 C 91.054 368.400,91.620 368.760,92.092 369.200 C 92.564 369.640,93.187 370.000,93.475 370.000 C 93.764 370.000,94.000 370.180,94.000 370.400 C 94.000 370.620,94.320 370.800,94.712 370.800 C 95.103 370.800,95.683 371.160,96.000 371.600 C 96.317 372.040,96.897 372.400,97.288 372.400 C 97.680 372.400,98.000 372.580,98.000 372.800 C 98.000 373.020,98.294 373.200,98.653 373.200 C 99.012 373.200,99.597 373.529,99.953 373.930 C 100.309 374.332,101.185 374.916,101.900 375.228 C 102.615 375.540,103.200 375.931,103.200 376.098 C 103.200 376.264,103.560 376.400,104.000 376.400 C 104.440 376.400,104.800 376.580,104.800 376.800 C 104.800 377.020,105.145 377.200,105.567 377.200 C 105.988 377.200,106.393 377.337,106.467 377.504 C 106.646 377.912,113.267 381.207,113.900 381.203 C 114.175 381.201,114.400 381.380,114.400 381.600 C 114.400 381.820,114.760 382.000,115.200 382.000 C 115.640 382.000,116.000 382.180,116.000 382.400 C 116.000 382.620,116.360 382.800,116.800 382.800 C 117.240 382.800,117.600 382.980,117.600 383.200 C 117.600 383.420,117.960 383.600,118.400 383.600 C 118.840 383.600,119.200 383.747,119.200 383.928 C 119.200 384.108,120.100 384.500,121.200 384.800 C 122.300 385.100,123.200 385.492,123.200 385.672 C 123.200 385.853,123.560 386.000,124.000 386.000 C 124.440 386.000,124.800 386.180,124.800 386.400 C 124.800 386.620,125.214 386.800,125.720 386.800 C 126.226 386.800,126.811 386.964,127.020 387.165 C 127.529 387.654,133.415 389.600,134.385 389.600 C 134.807 389.600,135.264 389.780,135.400 390.000 C 135.536 390.220,136.177 390.400,136.824 390.400 C 137.471 390.400,138.000 390.580,138.000 390.800 C 138.000 391.020,138.540 391.200,139.200 391.200 C 139.860 391.200,140.400 391.380,140.400 391.600 C 140.400 391.820,140.940 392.000,141.600 392.000 C 142.260 392.000,142.800 392.180,142.800 392.400 C 142.800 392.620,143.340 392.800,144.000 392.800 C 144.660 392.800,145.200 392.980,145.200 393.200 C 145.200 393.420,145.830 393.600,146.600 393.600 C 147.370 393.600,148.000 393.780,148.000 394.000 C 148.000 394.220,148.720 394.400,149.600 394.400 C 150.480 394.400,151.200 394.580,151.200 394.800 C 151.200 395.020,151.920 395.200,152.800 395.200 C 153.680 395.200,154.400 395.380,154.400 395.600 C 154.400 395.820,155.300 396.000,156.400 396.000 C 157.500 396.000,158.400 396.180,158.400 396.400 C 158.400 396.620,159.199 396.800,160.176 396.800 C 161.153 396.800,162.064 396.980,162.200 397.200 C 162.336 397.420,163.337 397.600,164.424 397.600 C 165.511 397.600,166.400 397.780,166.400 398.000 C 166.400 398.226,167.533 398.400,169.000 398.400 C 170.467 398.400,171.600 398.574,171.600 398.800 C 171.600 399.030,172.840 399.200,174.520 399.200 C 176.323 399.200,177.631 399.391,177.940 399.700 C 178.670 400.430,222.457 400.430,222.700 399.700 C 222.815 399.356,223.856 399.200,226.033 399.200 C 227.878 399.200,229.200 399.033,229.200 398.800 C 229.200 398.574,230.333 398.400,231.800 398.400 C 233.267 398.400,234.400 398.226,234.400 398.000 C 234.400 397.780,235.300 397.600,236.400 397.600 C 237.500 397.600,238.400 397.420,238.400 397.200 C 238.400 396.980,239.300 396.800,240.400 396.800 C 241.500 396.800,242.400 396.620,242.400 396.400 C 242.400 396.180,243.300 396.000,244.400 396.000 C 245.500 396.000,246.400 395.820,246.400 395.600 C 246.400 395.380,247.120 395.200,248.000 395.200 C 248.880 395.200,249.600 395.020,249.600 394.800 C 249.600 394.580,250.219 394.400,250.976 394.400 C 251.733 394.400,252.464 394.220,252.600 394.000 C 252.736 393.780,253.366 393.600,254.000 393.600 C 254.634 393.600,255.264 393.420,255.400 393.200 C 255.536 392.980,256.177 392.800,256.824 392.800 C 257.471 392.800,258.000 392.620,258.000 392.400 C 258.000 392.180,258.540 392.000,259.200 392.000 C 259.860 392.000,260.400 391.820,260.400 391.600 C 260.400 391.380,260.940 391.200,261.600 391.200 C 262.260 391.200,262.800 391.020,262.800 390.800 C 262.800 390.580,263.340 390.400,264.000 390.400 C 264.660 390.400,265.200 390.220,265.200 390.000 C 265.200 389.780,265.644 389.600,266.186 389.600 C 267.126 389.600,269.975 388.792,271.900 387.980 C 272.395 387.771,273.295 387.399,273.900 387.153 C 274.505 386.908,275.313 386.548,275.695 386.353 C 276.077 386.159,276.662 386.000,276.995 386.000 C 277.328 386.000,277.600 385.853,277.600 385.672 C 277.600 385.492,278.500 385.100,279.600 384.800 C 280.700 384.500,281.600 384.108,281.600 383.928 C 281.600 383.747,281.960 383.600,282.400 383.600 C 282.840 383.600,283.200 383.420,283.200 383.200 C 283.200 382.980,283.560 382.800,284.000 382.800 C 284.440 382.800,284.800 382.620,284.800 382.400 C 284.800 382.180,285.160 382.000,285.600 382.000 C 286.040 382.000,286.400 381.820,286.400 381.600 C 286.400 381.380,286.645 381.200,286.944 381.200 C 287.601 381.200,292.545 378.724,292.733 378.300 C 292.807 378.135,293.212 378.000,293.633 378.000 C 294.055 378.000,294.400 377.820,294.400 377.600 C 294.400 377.380,294.760 377.200,295.200 377.200 C 295.640 377.200,296.000 377.020,296.000 376.800 C 296.000 376.580,296.360 376.400,296.800 376.400 C 297.240 376.400,297.600 376.220,297.600 376.000 C 297.600 375.780,297.870 375.600,298.200 375.600 C 298.530 375.600,298.800 375.420,298.800 375.200 C 298.800 374.980,299.036 374.800,299.325 374.800 C 299.613 374.800,300.236 374.440,300.708 374.000 C 301.180 373.560,301.844 373.200,302.183 373.200 C 302.522 373.200,302.800 373.020,302.800 372.800 C 302.800 372.580,303.120 372.400,303.512 372.400 C 303.903 372.400,304.483 372.040,304.800 371.600 C 305.117 371.160,305.614 370.800,305.905 370.800 C 306.196 370.800,306.820 370.440,307.292 370.000 C 307.764 369.560,308.387 369.200,308.675 369.200 C 308.964 369.200,309.200 369.020,309.200 368.800 C 309.200 368.580,309.427 368.400,309.705 368.400 C 310.155 368.400,314.291 365.829,314.800 365.233 C 314.910 365.104,315.495 364.744,316.100 364.432 C 316.705 364.120,317.200 363.715,317.200 363.532 C 317.200 363.350,317.378 363.200,317.595 363.200 C 317.967 363.200,319.015 362.440,320.216 361.300 C 320.506 361.025,320.863 360.800,321.011 360.800 C 321.158 360.800,321.783 360.260,322.400 359.600 C 323.017 358.940,323.687 358.400,323.890 358.400 C 324.093 358.400,325.222 357.500,326.400 356.400 C 327.578 355.300,328.701 354.400,328.897 354.400 C 329.092 354.400,330.095 353.540,331.126 352.489 C 332.157 351.438,333.630 350.149,334.400 349.625 C 336.044 348.507,349.200 335.384,349.200 334.863 C 349.200 334.667,350.460 333.199,352.000 331.600 C 353.540 330.001,354.800 328.523,354.800 328.315 C 354.800 328.107,355.520 327.246,356.400 326.400 C 357.280 325.554,358.000 324.757,358.000 324.628 C 358.000 324.498,358.540 323.828,359.200 323.137 C 359.860 322.446,360.400 321.726,360.400 321.537 C 360.400 321.348,360.940 320.628,361.600 319.937 C 362.260 319.246,362.800 318.453,362.800 318.174 C 362.800 317.895,362.937 317.607,363.105 317.533 C 363.627 317.305,366.400 313.226,366.400 312.687 C 366.400 312.406,366.760 311.917,367.200 311.600 C 367.640 311.283,368.000 310.743,368.000 310.400 C 368.000 310.057,368.360 309.517,368.800 309.200 C 369.240 308.883,369.600 308.303,369.600 307.912 C 369.600 307.520,369.780 307.200,370.000 307.200 C 370.220 307.200,370.400 306.880,370.400 306.488 C 370.400 306.097,370.760 305.517,371.200 305.200 C 371.640 304.883,372.000 304.393,372.000 304.112 C 372.000 303.830,372.180 303.600,372.400 303.600 C 372.620 303.600,372.800 303.322,372.800 302.983 C 372.800 302.644,373.160 301.980,373.600 301.508 C 374.040 301.036,374.400 300.413,374.400 300.125 C 374.400 299.836,374.580 299.600,374.800 299.600 C 375.020 299.600,375.200 299.240,375.200 298.800 C 375.200 298.360,375.380 298.000,375.600 298.000 C 375.820 298.000,376.000 297.655,376.000 297.233 C 376.000 296.812,376.135 296.407,376.300 296.333 C 376.676 296.166,377.975 294.036,378.271 293.100 C 378.393 292.715,378.652 292.400,378.847 292.400 C 379.041 292.400,379.200 292.040,379.200 291.600 C 379.200 291.160,379.380 290.800,379.600 290.800 C 379.820 290.800,380.000 290.440,380.000 290.000 C 380.000 289.560,380.180 289.200,380.400 289.200 C 380.620 289.200,380.800 288.928,380.800 288.595 C 380.800 288.262,380.962 287.677,381.159 287.295 C 381.795 286.064,384.886 279.426,385.207 278.600 C 385.378 278.160,385.793 277.170,386.129 276.400 C 387.218 273.903,388.870 269.033,389.082 267.700 C 389.195 266.985,389.448 266.400,389.644 266.400 C 389.840 266.400,390.000 265.860,390.000 265.200 C 390.000 264.540,390.180 264.000,390.400 264.000 C 390.620 264.000,390.800 263.460,390.800 262.800 C 390.800 262.140,390.980 261.600,391.200 261.600 C 391.420 261.600,391.600 261.060,391.600 260.400 C 391.600 259.740,391.780 259.200,392.000 259.200 C 392.220 259.200,392.400 258.570,392.400 257.800 C 392.400 257.030,392.580 256.400,392.800 256.400 C 393.020 256.400,393.200 255.871,393.200 255.224 C 393.200 254.577,393.380 253.936,393.600 253.800 C 393.820 253.664,394.000 252.933,394.000 252.176 C 394.000 251.419,394.180 250.800,394.400 250.800 C 394.620 250.800,394.800 250.080,394.800 249.200 C 394.800 248.320,394.980 247.600,395.200 247.600 C 395.420 247.600,395.600 246.700,395.600 245.600 C 395.600 244.500,395.780 243.600,396.000 243.600 C 396.220 243.600,396.400 242.891,396.400 242.024 C 396.400 241.157,396.580 240.336,396.800 240.200 C 397.020 240.064,397.200 239.063,397.200 237.976 C 397.200 236.889,397.380 236.000,397.600 236.000 C 397.822 236.000,398.000 234.933,398.000 233.600 C 398.000 232.267,398.178 231.200,398.400 231.200 C 398.628 231.200,398.800 230.011,398.800 228.433 C 398.800 226.576,398.964 225.612,399.300 225.500 C 399.693 225.369,399.800 220.031,399.800 200.600 C 399.800 181.169,399.693 175.831,399.300 175.700 C 398.965 175.588,398.800 174.629,398.800 172.790 C 398.800 171.282,398.620 169.936,398.400 169.800 C 398.180 169.664,398.000 168.483,398.000 167.176 C 398.000 165.859,397.822 164.800,397.600 164.800 C 397.380 164.800,397.200 163.900,397.200 162.800 C 397.200 161.700,397.020 160.800,396.800 160.800 C 396.580 160.800,396.400 159.900,396.400 158.800 C 396.400 157.700,396.220 156.800,396.000 156.800 C 395.780 156.800,395.600 156.080,395.600 155.200 C 395.600 154.320,395.420 153.600,395.200 153.600 C 394.980 153.600,394.800 152.880,394.800 152.000 C 394.800 151.120,394.620 150.400,394.400 150.400 C 394.180 150.400,394.000 149.680,394.000 148.800 C 394.000 147.920,393.820 147.200,393.600 147.200 C 393.380 147.200,393.200 146.570,393.200 145.800 C 393.200 145.030,393.020 144.400,392.800 144.400 C 392.580 144.400,392.400 143.770,392.400 143.000 C 392.400 142.230,392.220 141.600,392.000 141.600 C 391.780 141.600,391.600 141.060,391.600 140.400 C 391.600 139.740,391.420 139.200,391.200 139.200 C 390.980 139.200,390.800 138.750,390.800 138.200 C 390.800 137.650,390.620 137.200,390.400 137.200 C 390.180 137.200,390.000 136.660,390.000 136.000 C 390.000 135.340,389.820 134.800,389.600 134.800 C 389.380 134.800,389.200 134.382,389.200 133.871 C 389.200 132.801,388.061 129.183,387.547 128.620 C 387.356 128.411,387.200 127.837,387.200 127.344 C 387.200 126.851,387.020 126.336,386.800 126.200 C 386.580 126.064,386.400 125.603,386.400 125.176 C 386.400 124.749,386.220 124.400,386.000 124.400 C 385.780 124.400,385.600 124.045,385.600 123.612 C 385.600 123.179,385.240 122.183,384.800 121.400 C 384.360 120.617,384.000 119.711,384.000 119.388 C 384.000 119.065,383.820 118.800,383.600 118.800 C 383.380 118.800,383.200 118.451,383.200 118.024 C 383.200 117.597,383.020 117.136,382.800 117.000 C 382.580 116.864,382.400 116.403,382.400 115.976 C 382.400 115.549,382.220 115.200,382.000 115.200 C 381.780 115.200,381.600 114.840,381.600 114.400 C 381.600 113.960,381.420 113.600,381.200 113.600 C 380.980 113.600,380.800 113.240,380.800 112.800 C 380.800 112.360,380.620 112.000,380.400 112.000 C 380.180 112.000,380.000 111.640,380.000 111.200 C 380.000 110.760,379.820 110.400,379.600 110.400 C 379.380 110.400,379.200 110.040,379.200 109.600 C 379.200 109.160,379.020 108.800,378.800 108.800 C 378.580 108.800,378.400 108.440,378.400 108.000 C 378.400 107.560,378.220 107.200,378.000 107.200 C 377.780 107.200,377.600 106.840,377.600 106.400 C 377.600 105.960,377.441 105.600,377.247 105.600 C 377.052 105.600,376.793 105.285,376.671 104.900 C 376.375 103.964,375.076 101.834,374.700 101.667 C 374.535 101.593,374.400 101.188,374.400 100.767 C 374.400 100.345,374.220 100.000,374.000 100.000 C 373.780 100.000,373.600 99.764,373.600 99.475 C 373.600 99.187,373.240 98.564,372.800 98.092 C 372.360 97.620,372.000 96.956,372.000 96.617 C 372.000 96.278,371.820 96.000,371.600 96.000 C 371.380 96.000,371.200 95.770,371.200 95.488 C 371.200 95.207,370.840 94.717,370.400 94.400 C 369.960 94.083,369.600 93.586,369.600 93.295 C 369.600 93.004,369.240 92.380,368.800 91.908 C 368.360 91.436,368.000 90.813,368.000 90.525 C 368.000 90.236,367.833 90.000,367.629 90.000 C 367.425 90.000,366.940 89.280,366.552 88.400 C 366.164 87.520,365.701 86.800,365.523 86.800 C 365.345 86.800,365.200 86.575,365.200 86.300 C 365.199 86.025,364.749 85.277,364.200 84.638 C 363.650 83.999,363.200 83.332,363.200 83.156 C 363.200 82.980,362.750 82.386,362.200 81.836 C 361.650 81.286,361.200 80.675,361.200 80.478 C 361.200 80.280,360.660 79.554,360.000 78.863 C 359.340 78.172,358.791 77.471,358.780 77.304 C 358.770 77.137,358.051 76.280,357.183 75.400 C 356.316 74.520,355.604 73.653,355.603 73.474 C 355.601 73.295,354.700 72.271,353.600 71.200 C 352.500 70.129,351.600 69.075,351.600 68.859 C 351.600 68.643,349.935 66.747,347.900 64.647 C 337.870 54.292,334.301 50.830,331.952 49.177 C 331.208 48.654,329.939 47.545,329.131 46.713 C 328.324 45.881,327.490 45.200,327.280 45.200 C 327.069 45.200,326.155 44.480,325.248 43.600 C 324.341 42.720,323.402 42.000,323.160 42.000 C 322.919 42.000,322.217 41.460,321.600 40.800 C 320.983 40.140,320.370 39.600,320.236 39.600 C 320.102 39.600,319.428 39.060,318.737 38.400 C 318.046 37.740,317.238 37.200,316.941 37.200 C 316.643 37.200,316.400 37.050,316.400 36.868 C 316.400 36.685,315.905 36.281,315.300 35.970 C 314.695 35.660,313.930 35.134,313.599 34.803 C 312.857 34.059,310.965 32.897,309.500 32.284 C 308.895 32.031,308.400 31.684,308.400 31.512 C 308.400 31.341,308.080 31.200,307.688 31.200 C 307.297 31.200,306.717 30.840,306.400 30.400 C 306.083 29.960,305.586 29.600,305.295 29.600 C 305.004 29.600,304.380 29.240,303.908 28.800 C 303.436 28.360,302.813 28.000,302.525 28.000 C 302.236 28.000,302.000 27.820,302.000 27.600 C 302.000 27.380,301.640 27.200,301.200 27.200 C 300.760 27.200,300.400 27.020,300.400 26.800 C 300.400 26.580,300.130 26.400,299.800 26.400 C 299.470 26.400,299.200 26.220,299.200 26.000 C 299.200 25.780,298.930 25.600,298.600 25.600 C 298.270 25.600,298.000 25.454,298.000 25.275 C 298.000 25.096,297.370 24.702,296.600 24.400 C 295.830 24.098,295.200 23.704,295.200 23.525 C 295.200 23.346,294.840 23.200,294.400 23.200 C 293.960 23.200,293.600 23.020,293.600 22.800 C 293.600 22.580,293.240 22.400,292.800 22.400 C 292.360 22.400,292.000 22.220,292.000 22.000 C 292.000 21.780,291.640 21.600,291.200 21.600 C 290.760 21.600,290.400 21.420,290.400 21.200 C 290.400 20.980,290.040 20.800,289.600 20.800 C 289.160 20.800,288.800 20.620,288.800 20.400 C 288.800 20.180,288.440 20.000,288.000 20.000 C 287.560 20.000,287.200 19.820,287.200 19.600 C 287.200 19.380,286.840 19.200,286.400 19.200 C 285.960 19.200,285.600 19.020,285.600 18.800 C 285.600 18.580,285.240 18.400,284.800 18.400 C 284.360 18.400,284.000 18.253,284.000 18.072 C 284.000 17.892,283.100 17.500,282.000 17.200 C 280.900 16.900,280.000 16.508,280.000 16.328 C 280.000 16.147,279.640 16.000,279.200 16.000 C 278.760 16.000,278.400 15.820,278.400 15.600 C 278.400 15.380,278.128 15.200,277.796 15.200 C 277.463 15.200,276.338 14.822,275.296 14.360 C 272.091 12.940,271.892 12.864,268.692 11.817 C 266.982 11.258,265.137 10.800,264.592 10.800 C 264.046 10.800,263.600 10.620,263.600 10.400 C 263.600 10.180,263.060 10.000,262.400 10.000 C 261.740 10.000,261.200 9.820,261.200 9.600 C 261.200 9.380,260.660 9.200,260.000 9.200 C 259.340 9.200,258.800 9.020,258.800 8.800 C 258.800 8.580,258.260 8.400,257.600 8.400 C 256.940 8.400,256.400 8.220,256.400 8.000 C 256.400 7.780,255.781 7.600,255.024 7.600 C 254.267 7.600,253.536 7.420,253.400 7.200 C 253.264 6.980,252.533 6.800,251.776 6.800 C 251.019 6.800,250.400 6.620,250.400 6.400 C 250.400 6.180,249.680 6.000,248.800 6.000 C 247.920 6.000,247.200 5.820,247.200 5.600 C 247.200 5.380,246.480 5.200,245.600 5.200 C 244.720 5.200,244.000 5.020,244.000 4.800 C 244.000 4.580,243.100 4.400,242.000 4.400 C 240.900 4.400,240.000 4.220,240.000 4.000 C 240.000 3.780,239.100 3.600,238.000 3.600 C 236.900 3.600,236.000 3.420,236.000 3.200 C 236.000 2.978,234.933 2.800,233.600 2.800 C 232.267 2.800,231.200 2.622,231.200 2.400 C 231.200 2.169,229.933 2.000,228.200 2.000 C 226.467 2.000,225.200 1.831,225.200 1.600 C 225.200 1.363,223.741 1.200,221.624 1.200 C 219.657 1.200,217.936 1.020,217.800 0.800 C 217.461 0.252,183.339 0.252,183.000 0.800 M211.777 11.198 C 218.562 11.678,225.017 12.313,228.000 12.795 C 229.210 12.990,231.550 13.355,233.200 13.606 C 234.850 13.856,236.920 14.213,237.800 14.398 C 238.680 14.583,240.480 14.949,241.800 15.210 C 243.120 15.472,244.650 15.825,245.200 15.996 C 245.750 16.167,247.010 16.522,248.000 16.785 C 254.010 18.381,263.123 21.345,268.400 23.420 C 277.546 27.017,292.061 34.070,296.062 36.860 C 296.646 37.267,297.216 37.600,297.330 37.600 C 297.444 37.600,299.846 39.058,302.668 40.839 C 324.514 54.628,347.549 77.833,360.802 99.400 C 366.305 108.355,372.757 120.819,375.194 127.200 C 375.488 127.970,375.879 128.771,376.064 128.980 C 376.249 129.189,376.400 129.596,376.400 129.884 C 376.400 130.173,376.745 131.172,377.166 132.104 C 377.588 133.037,378.165 134.520,378.448 135.400 C 378.731 136.280,379.107 137.171,379.282 137.380 C 379.457 137.589,379.600 138.138,379.600 138.600 C 379.600 139.062,379.748 139.611,379.928 139.820 C 380.108 140.029,380.675 141.550,381.188 143.200 C 381.700 144.850,382.385 147.010,382.711 148.000 C 383.037 148.990,383.448 150.430,383.625 151.200 C 383.802 151.970,384.141 153.320,384.379 154.200 C 385.127 156.968,386.509 163.632,387.157 167.600 C 387.391 169.030,387.777 171.338,388.017 172.728 C 388.571 175.952,388.734 175.776,382.051 179.160 C 352.108 194.319,313.378 205.337,270.900 210.777 C 259.836 212.194,253.898 212.785,249.443 212.911 L 246.287 213.000 244.599 209.760 C 229.683 181.123,193.877 173.049,168.600 192.623 C 162.371 197.446,158.459 202.265,154.375 210.146 L 152.745 213.292 148.472 213.027 C 146.123 212.881,142.850 212.602,141.200 212.408 C 139.550 212.213,136.400 211.856,134.200 211.614 C 127.043 210.828,121.071 209.987,109.800 208.178 C 97.350 206.179,79.451 202.202,68.400 198.979 C 66.530 198.433,64.280 197.783,63.400 197.534 C 60.925 196.833,54.293 194.736,53.400 194.372 C 52.960 194.192,50.620 193.382,48.200 192.572 C 33.215 187.551,12.752 178.253,12.460 176.332 C 12.297 175.263,13.397 167.681,14.394 163.000 C 14.582 162.120,14.956 160.320,15.227 159.000 C 15.695 156.717,16.464 153.620,17.212 151.000 C 17.401 150.340,17.730 149.170,17.944 148.400 C 19.444 143.013,21.350 137.533,24.276 130.200 C 28.099 120.619,33.410 110.095,39.211 100.600 C 47.930 86.331,60.002 71.889,73.154 59.995 C 75.219 58.128,77.109 56.414,77.354 56.187 C 92.079 42.556,119.088 27.439,141.800 20.118 C 144.220 19.338,146.560 18.563,147.000 18.395 C 147.440 18.228,148.610 17.870,149.600 17.599 C 150.590 17.329,151.850 16.965,152.400 16.792 C 155.797 15.721,164.094 14.095,172.600 12.835 C 184.565 11.063,200.470 10.398,211.777 11.198 M202.576 203.637 C 215.254 205.922,224.443 213.411,227.563 224.000 C 227.854 224.990,228.239 226.250,228.417 226.800 C 229.465 230.030,229.022 239.298,227.642 243.000 C 225.471 248.824,221.964 253.609,216.878 257.687 C 215.504 258.789,210.358 261.384,208.400 261.961 C 207.410 262.254,206.135 262.661,205.566 262.868 C 204.427 263.280,193.711 263.097,191.800 262.632 C 191.140 262.471,190.195 262.173,189.700 261.970 C 189.205 261.766,188.305 261.399,187.700 261.153 C 187.095 260.908,186.240 260.516,185.800 260.283 C 185.360 260.051,184.286 259.487,183.414 259.030 C 178.837 256.635,173.354 249.852,170.779 243.400 C 169.310 239.716,168.814 229.334,169.962 226.290 C 170.147 225.800,170.513 224.680,170.776 223.800 C 174.562 211.124,189.957 201.363,202.576 203.637 M17.243 222.768 C 31.019 229.927,53.783 238.650,70.600 243.216 C 94.742 249.770,121.019 254.544,145.400 256.804 C 154.840 257.679,156.154 257.901,156.797 258.727 C 157.128 259.154,158.210 260.637,159.200 262.024 C 168.195 274.620,183.588 282.367,199.669 282.393 C 204.010 282.399,205.209 282.262,210.600 281.142 C 220.874 279.006,232.718 271.670,238.609 263.793 C 239.264 262.917,240.025 261.962,240.300 261.671 C 240.575 261.381,240.800 261.016,240.800 260.861 C 240.800 259.481,243.266 258.000,245.563 258.000 C 248.057 258.000,249.231 257.893,265.600 256.179 C 287.085 253.930,321.295 247.576,333.200 243.625 C 333.750 243.442,334.920 243.093,335.800 242.850 C 338.638 242.064,342.858 240.772,349.200 238.749 C 355.265 236.814,356.485 236.388,362.200 234.210 C 366.937 232.405,379.992 226.750,384.000 224.766 C 386.090 223.732,387.956 223.032,388.147 223.210 C 388.780 223.802,387.916 230.711,385.995 240.400 C 385.756 241.610,385.459 243.276,385.337 244.103 C 385.215 244.929,384.955 245.705,384.758 245.826 C 384.561 245.948,384.400 246.478,384.400 247.005 C 384.400 247.531,384.239 248.376,384.042 248.881 C 383.845 249.387,383.459 250.610,383.184 251.600 C 382.468 254.182,378.843 265.251,378.403 266.200 C 378.199 266.640,377.407 268.620,376.644 270.600 C 374.386 276.457,369.165 287.543,366.660 291.800 C 366.012 292.900,364.940 294.790,364.276 296.000 C 363.613 297.210,362.379 299.248,361.535 300.528 C 360.691 301.809,360.000 302.928,360.000 303.015 C 360.000 303.603,353.440 312.641,347.400 320.375 C 341.994 327.298,327.557 341.650,319.814 347.800 C 318.983 348.460,317.470 349.662,316.452 350.471 C 311.807 354.160,299.266 362.800,298.556 362.800 C 298.428 362.800,297.824 363.156,297.213 363.591 C 289.635 368.986,267.486 378.591,252.200 383.109 C 249.578 383.884,248.405 384.199,244.400 385.200 C 243.520 385.420,242.125 385.771,241.300 385.979 C 240.475 386.188,239.080 386.476,238.200 386.620 C 237.320 386.764,235.610 387.050,234.400 387.257 C 212.129 391.054,186.779 391.045,166.200 387.234 C 165.100 387.030,163.210 386.680,162.000 386.455 C 160.790 386.230,159.035 385.856,158.100 385.623 C 157.165 385.390,155.680 385.020,154.800 384.800 C 153.920 384.580,152.525 384.232,151.700 384.026 C 148.134 383.136,144.804 382.137,144.546 381.879 C 144.392 381.726,143.857 381.600,143.357 381.600 C 142.857 381.600,142.336 381.420,142.200 381.200 C 142.064 380.980,141.601 380.800,141.171 380.800 C 140.741 380.800,140.077 380.629,139.695 380.419 C 139.313 380.210,137.380 379.466,135.400 378.765 C 127.679 376.034,115.877 370.691,109.668 367.118 C 107.836 366.063,106.249 365.200,106.141 365.200 C 106.033 365.200,105.159 364.660,104.200 364.000 C 103.241 363.340,102.338 362.800,102.195 362.800 C 101.268 362.800,88.708 353.986,80.820 347.800 C 74.218 342.623,58.636 327.046,53.400 320.389 C 47.474 312.854,39.200 301.317,39.200 300.587 C 39.200 300.454,38.660 299.559,38.000 298.600 C 37.340 297.641,36.800 296.736,36.800 296.590 C 36.800 296.443,36.460 295.846,36.045 295.262 C 31.660 289.091,20.968 264.324,17.974 253.400 C 17.793 252.740,17.443 251.480,17.196 250.600 C 16.275 247.318,15.250 243.114,14.759 240.600 C 13.634 234.840,12.944 230.554,12.440 226.200 C 12.237 224.440,11.945 222.685,11.792 222.300 C 10.831 219.880,11.853 219.967,17.243 222.768 " stroke="none" fill="#050404" fill-rule="evenodd"></path><path id="path2" d="M195.152 11.368 C 195.016 11.511,191.776 11.806,187.952 12.022 C 174.598 12.777,161.879 14.735,151.900 17.573 C 151.075 17.808,149.815 18.156,149.100 18.347 C 143.986 19.712,131.611 24.145,126.400 26.478 C 125.410 26.922,123.970 27.555,123.200 27.887 C 121.086 28.796,111.829 33.347,111.600 33.589 C 111.490 33.706,110.860 34.066,110.200 34.390 C 109.540 34.714,107.857 35.659,106.459 36.490 C 105.062 37.320,103.850 38.000,103.767 38.000 C 103.588 38.000,100.330 40.050,95.600 43.138 C 92.635 45.073,83.356 51.782,82.800 52.392 C 82.690 52.512,81.610 53.416,80.400 54.399 C 79.190 55.383,77.300 57.020,76.200 58.037 C 75.100 59.054,72.670 61.235,70.800 62.885 C 67.771 65.556,63.741 69.744,58.373 75.800 C 57.398 76.900,56.504 77.890,56.386 78.000 C 56.043 78.319,51.529 83.959,49.341 86.800 C 45.505 91.782,38.000 103.186,38.000 104.032 C 38.000 104.234,37.865 104.401,37.700 104.403 C 37.535 104.405,37.213 104.810,36.983 105.303 C 36.366 106.631,34.632 109.770,34.388 110.000 C 34.144 110.230,28.790 121.100,27.887 123.200 C 27.556 123.970,26.885 125.489,26.397 126.576 C 24.448 130.921,20.060 142.884,19.126 146.400 C 18.922 147.170,18.585 148.385,18.377 149.100 C 17.525 152.035,17.127 153.481,16.752 155.000 C 15.604 159.645,14.295 166.339,13.622 171.000 C 13.431 172.320,13.150 174.127,12.996 175.014 L 12.718 176.629 18.259 179.282 C 27.611 183.760,32.716 185.967,41.200 189.200 C 44.170 190.332,46.960 191.416,47.400 191.610 C 49.467 192.520,59.970 195.835,65.800 197.418 C 68.295 198.095,69.891 198.540,72.100 199.172 C 75.767 200.223,80.972 201.522,85.000 202.392 C 95.700 204.703,99.466 205.457,107.000 206.794 C 120.381 209.169,128.375 210.278,141.553 211.589 C 153.389 212.766,152.373 212.921,153.952 209.700 C 160.193 196.974,172.569 186.707,185.800 183.280 C 186.680 183.052,188.120 182.680,189.000 182.453 C 194.254 181.099,204.868 181.081,210.100 182.417 C 213.771 183.354,215.053 183.712,215.800 184.007 C 216.240 184.180,217.680 184.737,219.000 185.243 C 229.718 189.358,239.629 198.615,245.223 209.737 L 246.600 212.474 250.000 212.222 C 266.649 210.987,292.237 207.107,309.800 203.155 C 310.680 202.957,312.210 202.625,313.200 202.418 C 314.994 202.042,317.255 201.506,320.100 200.782 C 320.925 200.572,322.275 200.232,323.100 200.027 C 324.494 199.680,325.279 199.463,329.000 198.400 C 331.428 197.706,332.929 197.289,335.400 196.619 C 337.998 195.915,338.160 195.865,344.400 193.823 C 356.104 189.995,368.425 184.923,381.502 178.551 L 387.603 175.577 387.368 172.689 C 387.239 171.100,387.031 169.530,386.907 169.200 C 386.782 168.870,386.527 167.655,386.340 166.500 C 385.685 162.457,385.252 160.185,384.795 158.400 C 384.542 157.410,384.240 155.924,384.125 155.097 C 384.010 154.271,383.755 153.495,383.558 153.374 C 383.361 153.252,383.200 152.771,383.200 152.305 C 383.200 151.531,382.758 149.877,381.996 147.800 C 381.834 147.360,381.126 145.200,380.423 143.000 C 378.986 138.509,377.008 132.908,376.113 130.800 C 375.786 130.030,375.375 129.040,375.200 128.600 C 373.566 124.494,367.744 112.106,367.211 111.600 C 367.095 111.490,366.623 110.680,366.162 109.800 C 364.345 106.333,361.729 101.954,358.038 96.200 C 344.323 74.821,321.682 52.959,299.200 39.387 C 292.885 35.574,292.408 35.301,290.700 34.508 C 289.875 34.125,289.200 33.674,289.200 33.506 C 289.200 33.338,288.855 33.200,288.433 33.200 C 288.012 33.200,287.607 33.063,287.533 32.896 C 287.354 32.488,280.733 29.193,280.100 29.197 C 279.825 29.199,279.600 29.020,279.600 28.800 C 279.600 28.580,279.358 28.400,279.061 28.400 C 278.765 28.400,278.000 28.150,277.361 27.844 C 276.183 27.279,273.658 26.181,272.200 25.599 C 271.760 25.423,270.547 24.902,269.504 24.440 C 268.462 23.978,267.373 23.600,267.084 23.600 C 266.796 23.600,266.389 23.446,266.180 23.257 C 265.814 22.927,254.369 19.042,251.700 18.341 C 250.985 18.154,249.725 17.808,248.900 17.573 C 242.251 15.683,232.876 13.947,223.000 12.779 C 215.940 11.944,195.585 10.913,195.152 11.368 " stroke="none" fill="#fb4444" fill-rule="evenodd"></path><path id="path3" d="M186.200 11.404 C 178.295 11.999,175.147 12.374,167.400 13.643 C 161.699 14.578,154.888 16.007,152.400 16.792 C 151.850 16.965,150.590 17.329,149.600 17.599 C 148.610 17.870,147.440 18.228,147.000 18.395 C 146.560 18.563,144.220 19.338,141.800 20.118 C 119.088 27.439,92.079 42.556,77.354 56.187 C 77.109 56.414,75.219 58.128,73.154 59.995 C 54.970 76.440,40.930 95.108,30.129 117.200 C 24.699 128.307,20.652 138.670,17.944 148.400 C 17.730 149.170,17.401 150.340,17.212 151.000 C 16.464 153.620,15.695 156.717,15.227 159.000 C 14.956 160.320,14.582 162.120,14.394 163.000 C 13.397 167.681,12.297 175.263,12.460 176.332 C 12.752 178.253,33.215 187.551,48.200 192.572 C 50.620 193.382,52.960 194.192,53.400 194.372 C 54.293 194.736,60.925 196.833,63.400 197.534 C 64.280 197.783,66.530 198.433,68.400 198.979 C 79.451 202.202,97.350 206.179,109.800 208.178 C 121.071 209.987,127.043 210.828,134.200 211.614 C 136.400 211.856,139.550 212.213,141.200 212.408 C 142.850 212.602,146.123 212.881,148.472 213.027 L 152.745 213.292 154.375 210.146 C 158.459 202.265,162.371 197.446,168.600 192.623 C 193.877 173.049,229.683 181.123,244.599 209.760 L 246.287 213.000 249.443 212.911 C 253.898 212.785,259.836 212.194,270.900 210.777 C 313.378 205.337,352.108 194.319,382.051 179.160 C 388.734 175.776,388.571 175.952,388.017 172.728 C 387.777 171.338,387.391 169.030,387.157 167.600 C 386.509 163.632,385.127 156.968,384.379 154.200 C 384.141 153.320,383.802 151.970,383.625 151.200 C 383.448 150.430,383.037 148.990,382.711 148.000 C 382.385 147.010,381.700 144.850,381.188 143.200 C 380.675 141.550,380.108 140.029,379.928 139.820 C 379.748 139.611,379.600 139.062,379.600 138.600 C 379.600 138.138,379.457 137.589,379.282 137.380 C 379.107 137.171,378.731 136.280,378.448 135.400 C 378.165 134.520,377.588 133.037,377.166 132.104 C 376.745 131.172,376.400 130.173,376.400 129.884 C 376.400 129.596,376.249 129.189,376.064 128.980 C 375.879 128.771,375.488 127.970,375.194 127.200 C 372.757 120.819,366.305 108.355,360.802 99.400 C 347.549 77.833,324.514 54.628,302.668 40.839 C 299.846 39.058,297.444 37.600,297.330 37.600 C 297.216 37.600,296.646 37.267,296.062 36.860 C 292.061 34.070,277.546 27.017,268.400 23.420 C 263.123 21.345,254.010 18.381,248.000 16.785 C 247.010 16.522,245.750 16.167,245.200 15.996 C 244.650 15.825,243.120 15.472,241.800 15.210 C 240.480 14.949,238.680 14.583,237.800 14.398 C 236.920 14.213,234.850 13.856,233.200 13.606 C 231.550 13.355,229.210 12.990,228.000 12.795 C 216.724 10.974,199.510 10.401,186.200 11.404 M213.800 11.998 C 226.080 12.777,239.568 14.919,248.900 17.573 C 249.725 17.808,250.985 18.154,251.700 18.341 C 254.369 19.042,265.814 22.927,266.180 23.257 C 266.389 23.446,266.796 23.600,267.084 23.600 C 267.373 23.600,268.462 23.978,269.504 24.440 C 270.547 24.902,271.760 25.423,272.200 25.599 C 273.658 26.181,276.183 27.279,277.361 27.844 C 278.000 28.150,278.765 28.400,279.061 28.400 C 279.358 28.400,279.600 28.580,279.600 28.800 C 279.600 29.020,279.825 29.199,280.100 29.197 C 280.733 29.193,287.354 32.488,287.533 32.896 C 287.607 33.063,288.012 33.200,288.433 33.200 C 288.855 33.200,289.200 33.338,289.200 33.506 C 289.200 33.674,289.875 34.125,290.700 34.508 C 292.408 35.301,292.885 35.574,299.200 39.387 C 321.682 52.959,344.323 74.821,358.038 96.200 C 361.729 101.954,364.345 106.333,366.162 109.800 C 366.623 110.680,367.095 111.490,367.211 111.600 C 367.744 112.106,373.566 124.494,375.200 128.600 C 375.375 129.040,375.786 130.030,376.113 130.800 C 377.008 132.908,378.986 138.509,380.423 143.000 C 381.126 145.200,381.834 147.360,381.996 147.800 C 382.758 149.877,383.200 151.531,383.200 152.305 C 383.200 152.771,383.361 153.252,383.558 153.374 C 383.755 153.495,384.010 154.271,384.125 155.097 C 384.240 155.924,384.542 157.410,384.795 158.400 C 385.252 160.185,385.685 162.457,386.340 166.500 C 386.527 167.655,386.782 168.870,386.907 169.200 C 387.031 169.530,387.239 171.100,387.368 172.689 L 387.603 175.577 381.502 178.551 C 368.425 184.923,356.104 189.995,344.400 193.823 C 338.160 195.865,337.998 195.915,335.400 196.619 C 332.929 197.289,331.428 197.706,329.000 198.400 C 325.279 199.463,324.494 199.680,323.100 200.027 C 322.275 200.232,320.925 200.572,320.100 200.782 C 317.255 201.506,314.994 202.042,313.200 202.418 C 312.210 202.625,310.680 202.957,309.800 203.155 C 292.237 207.107,266.649 210.987,250.000 212.222 L 246.600 212.474 245.223 209.737 C 239.629 198.615,229.718 189.358,219.000 185.243 C 217.680 184.737,216.240 184.180,215.800 184.007 C 215.053 183.712,213.771 183.354,210.100 182.417 C 204.868 181.081,194.254 181.099,189.000 182.453 C 188.120 182.680,186.680 183.052,185.800 183.280 C 174.844 186.118,163.860 194.049,157.413 203.776 C 156.238 205.549,154.681 208.215,153.952 209.700 C 152.373 212.921,153.389 212.766,141.553 211.589 C 128.375 210.278,120.381 209.169,107.000 206.794 C 99.466 205.457,95.700 204.703,85.000 202.392 C 80.972 201.522,75.767 200.223,72.100 199.172 C 69.891 198.540,68.295 198.095,65.800 197.418 C 59.970 195.835,49.467 192.520,47.400 191.610 C 46.960 191.416,44.170 190.332,41.200 189.200 C 32.716 185.967,27.611 183.760,18.259 179.282 L 12.718 176.629 12.996 175.014 C 13.150 174.127,13.431 172.320,13.622 171.000 C 14.295 166.339,15.604 159.645,16.752 155.000 C 17.127 153.481,17.525 152.035,18.377 149.100 C 18.585 148.385,18.922 147.170,19.126 146.400 C 20.060 142.884,24.448 130.921,26.397 126.576 C 26.885 125.489,27.556 123.970,27.887 123.200 C 28.790 121.100,34.144 110.230,34.388 110.000 C 34.632 109.770,36.366 106.631,36.983 105.303 C 37.213 104.810,37.535 104.405,37.700 104.403 C 37.865 104.401,38.000 104.234,38.000 104.032 C 38.000 103.186,45.505 91.782,49.341 86.800 C 51.529 83.959,56.043 78.319,56.386 78.000 C 56.504 77.890,57.398 76.900,58.373 75.800 C 63.741 69.744,67.771 65.556,70.800 62.885 C 72.670 61.235,75.100 59.054,76.200 58.037 C 77.300 57.020,79.190 55.383,80.400 54.399 C 81.610 53.416,82.690 52.512,82.800 52.392 C 83.356 51.782,92.635 45.073,95.600 43.138 C 100.330 40.050,103.588 38.000,103.767 38.000 C 103.850 38.000,105.062 37.320,106.459 36.490 C 107.857 35.659,109.540 34.714,110.200 34.390 C 110.860 34.066,111.490 33.706,111.600 33.589 C 111.829 33.347,121.086 28.796,123.200 27.887 C 123.970 27.555,125.410 26.922,126.400 26.478 C 131.611 24.145,143.986 19.712,149.100 18.347 C 149.815 18.156,151.075 17.808,151.900 17.573 C 161.879 14.735,174.598 12.777,187.952 12.022 C 191.776 11.806,195.016 11.511,195.152 11.368 C 195.412 11.095,204.273 11.394,213.800 11.998 " stroke="none" fill="#b23030" fill-rule="evenodd"></path><path id="path4" d="M195.200 203.675 C 183.536 205.639,173.806 213.657,170.776 223.800 C 170.513 224.680,170.147 225.800,169.962 226.290 C 169.012 228.809,169.134 236.292,170.208 241.400 C 171.448 247.294,178.191 256.297,183.414 259.030 C 184.286 259.487,185.360 260.051,185.800 260.283 C 186.240 260.516,187.095 260.908,187.700 261.153 C 188.305 261.399,189.205 261.766,189.700 261.970 C 190.195 262.173,191.140 262.471,191.800 262.632 C 193.711 263.097,204.427 263.280,205.566 262.868 C 206.135 262.661,207.410 262.254,208.400 261.961 C 210.358 261.384,215.504 258.789,216.878 257.687 C 221.964 253.609,225.471 248.824,227.642 243.000 C 229.022 239.298,229.465 230.030,228.417 226.800 C 228.239 226.250,227.854 224.990,227.563 224.000 C 223.721 210.960,208.545 201.429,195.200 203.675 M206.600 204.970 C 232.242 211.590,236.360 247.814,212.796 259.481 C 207.514 262.097,204.592 262.804,199.154 262.786 C 191.873 262.761,186.225 260.783,180.636 256.301 C 161.098 240.634,169.441 208.705,194.200 204.393 C 196.969 203.911,203.713 204.225,206.600 204.970 M11.745 221.000 C 11.618 221.330,11.639 221.915,11.792 222.300 C 11.945 222.685,12.237 224.440,12.440 226.200 C 12.944 230.554,13.634 234.840,14.759 240.600 C 15.250 243.114,16.275 247.318,17.196 250.600 C 17.443 251.480,17.793 252.740,17.974 253.400 C 20.968 264.324,31.660 289.091,36.045 295.262 C 36.460 295.846,36.800 296.443,36.800 296.590 C 36.800 296.736,37.340 297.641,38.000 298.600 C 38.660 299.559,39.200 300.454,39.200 300.587 C 39.200 301.317,47.474 312.854,53.400 320.389 C 58.636 327.046,74.218 342.623,80.820 347.800 C 88.708 353.986,101.268 362.800,102.195 362.800 C 102.338 362.800,103.241 363.340,104.200 364.000 C 105.159 364.660,106.033 365.200,106.141 365.200 C 106.249 365.200,107.836 366.063,109.668 367.118 C 115.877 370.691,127.679 376.034,135.400 378.765 C 137.380 379.466,139.313 380.210,139.695 380.419 C 140.077 380.629,140.741 380.800,141.171 380.800 C 141.601 380.800,142.064 380.980,142.200 381.200 C 142.336 381.420,142.857 381.600,143.357 381.600 C 143.857 381.600,144.392 381.726,144.546 381.879 C 144.804 382.137,148.134 383.136,151.700 384.026 C 152.525 384.232,153.920 384.580,154.800 384.800 C 155.680 385.020,157.165 385.390,158.100 385.623 C 159.035 385.856,160.790 386.230,162.000 386.455 C 163.210 386.680,165.100 387.030,166.200 387.234 C 186.779 391.045,212.129 391.054,234.400 387.257 C 235.610 387.050,237.320 386.764,238.200 386.620 C 239.080 386.476,240.475 386.188,241.300 385.979 C 242.125 385.771,243.520 385.420,244.400 385.200 C 248.405 384.199,249.578 383.884,252.200 383.109 C 267.486 378.591,289.635 368.986,297.213 363.591 C 297.824 363.156,298.428 362.800,298.556 362.800 C 299.266 362.800,311.807 354.160,316.452 350.471 C 317.470 349.662,318.983 348.460,319.814 347.800 C 327.557 341.650,341.994 327.298,347.400 320.375 C 353.440 312.641,360.000 303.603,360.000 303.015 C 360.000 302.928,360.691 301.809,361.535 300.528 C 362.379 299.248,363.613 297.210,364.276 296.000 C 364.940 294.790,366.012 292.900,366.660 291.800 C 369.165 287.543,374.386 276.457,376.644 270.600 C 377.407 268.620,378.199 266.640,378.403 266.200 C 378.843 265.251,382.468 254.182,383.184 251.600 C 383.459 250.610,383.845 249.387,384.042 248.881 C 384.239 248.376,384.400 247.531,384.400 247.005 C 384.400 246.478,384.561 245.948,384.758 245.826 C 384.955 245.705,385.215 244.929,385.337 244.103 C 385.459 243.276,385.756 241.610,385.995 240.400 C 387.916 230.711,388.780 223.802,388.147 223.210 C 387.956 223.032,386.090 223.732,384.000 224.766 C 379.992 226.750,366.937 232.405,362.200 234.210 C 356.485 236.388,355.265 236.814,349.200 238.749 C 342.858 240.772,338.638 242.064,335.800 242.850 C 334.920 243.093,333.750 243.442,333.200 243.625 C 321.295 247.576,287.085 253.930,265.600 256.179 C 249.231 257.893,248.057 258.000,245.563 258.000 C 243.266 258.000,240.800 259.481,240.800 260.861 C 240.800 261.016,240.575 261.381,240.300 261.671 C 240.025 261.962,239.264 262.917,238.609 263.793 C 232.718 271.670,220.874 279.006,210.600 281.142 C 205.209 282.262,204.010 282.399,199.669 282.393 C 183.588 282.367,168.195 274.620,159.200 262.024 C 158.210 260.637,157.128 259.154,156.797 258.727 C 156.154 257.901,154.840 257.679,145.400 256.804 C 121.019 254.544,94.742 249.770,70.600 243.216 C 53.783 238.650,31.019 229.927,17.243 222.768 C 12.262 220.180,12.082 220.122,11.745 221.000 M18.419 224.209 C 23.974 226.993,29.920 229.705,34.800 231.680 C 37.616 232.820,38.959 233.330,47.300 236.425 C 64.230 242.706,86.160 248.585,105.500 252.026 C 106.655 252.232,108.635 252.589,109.900 252.820 C 120.820 254.814,133.586 256.446,150.727 258.040 L 156.055 258.536 157.288 260.368 C 164.343 270.854,176.239 279.078,188.000 281.598 C 189.210 281.857,190.851 282.234,191.646 282.435 C 193.614 282.932,205.198 282.898,207.523 282.389 C 208.555 282.162,210.300 281.786,211.400 281.552 C 221.932 279.312,233.173 271.889,240.100 262.600 C 243.092 258.587,242.594 258.820,249.107 258.388 C 258.257 257.780,270.739 256.545,277.400 255.589 C 278.940 255.367,281.550 255.000,283.200 254.773 C 290.080 253.824,300.690 251.946,310.400 249.959 C 323.968 247.182,350.579 239.688,357.000 236.836 C 357.440 236.641,358.430 236.264,359.200 236.000 C 359.970 235.736,360.960 235.376,361.400 235.201 C 361.840 235.026,365.260 233.667,369.000 232.181 C 375.938 229.424,379.239 227.970,384.840 225.204 L 388.000 223.644 388.000 224.802 C 388.000 225.439,387.836 226.824,387.636 227.880 C 387.436 228.936,387.057 231.150,386.794 232.800 C 385.200 242.818,381.138 258.231,378.415 264.600 C 378.227 265.040,377.411 267.110,376.603 269.200 C 374.367 274.976,373.040 277.924,369.214 285.600 C 363.180 297.706,357.148 307.039,347.000 319.968 C 340.337 328.456,325.766 342.754,317.406 349.007 C 316.529 349.663,315.359 350.590,314.806 351.067 C 312.793 352.802,300.677 361.200,300.186 361.200 C 300.099 361.200,298.357 362.219,296.314 363.464 C 279.419 373.765,254.567 383.220,236.100 386.373 C 228.772 387.624,227.154 387.852,218.400 388.863 C 212.779 389.511,187.938 389.512,182.400 388.863 C 173.214 387.787,171.818 387.586,162.600 386.013 C 154.803 384.683,138.591 379.825,131.704 376.756 C 130.772 376.340,129.854 376.000,129.666 376.000 C 129.477 376.000,128.800 375.750,128.161 375.444 C 127.523 375.138,126.280 374.572,125.400 374.186 C 111.870 368.259,97.593 359.961,86.783 351.741 C 82.057 348.147,81.892 348.015,77.648 344.411 C 74.625 341.844,59.891 327.304,57.978 325.000 C 57.430 324.340,55.991 322.630,54.781 321.200 C 43.818 308.249,31.284 287.476,25.697 273.000 C 25.358 272.120,24.927 271.229,24.740 271.020 C 24.553 270.811,24.400 270.404,24.400 270.116 C 24.400 269.827,24.042 268.828,23.605 267.896 C 20.657 261.609,15.576 243.367,14.025 233.500 C 12.550 224.124,12.296 221.600,12.825 221.600 C 13.037 221.600,15.555 222.774,18.419 224.209 " stroke="none" fill="#747474" fill-rule="evenodd"></path></g></svg>